<?xml version="1.0" standalone="no"?>
<!DOCTYPE svg PUBLIC "-//W3C//DTD SVG 20010904//EN"
 "http://www.w3.org/TR/2001/REC-SVG-20010904/DTD/svg10.dtd">
<svg version="1.0" xmlns="http://www.w3.org/2000/svg"
 width="1000.000000pt" height="1000.000000pt" viewBox="0 0 1000.000000 1000.000000"
 preserveAspectRatio="xMidYMid meet">

<g transform="translate(0.000000,1000.000000) scale(0.100000,-0.100000)"
fill="#000000" stroke="none">
<path d="M4840 9171 c-58 -15 -139 -38 -180 -50 -73 -21 -452 -114 -615 -151
-44 -10 -240 -59 -435 -109 -195 -49 -494 -124 -665 -167 -170 -42 -348 -87
-395 -100 -113 -31 -358 -93 -550 -139 -245 -58 -330 -95 -414 -178 -51 -52
-79 -110 -96 -202 -19 -102 -21 -3124 -2 -3270 18 -142 65 -337 128 -538 26
-82 140 -365 154 -382 5 -5 24 -47 44 -92 70 -158 309 -547 426 -692 19 -24
49 -63 65 -86 162 -230 620 -694 949 -960 222 -181 565 -423 834 -591 223
-138 392 -236 582 -337 47 -24 114 -61 150 -81 76 -42 163 -71 185 -62 22 8
18 175 -5 187 -8 4 -81 39 -162 78 -390 185 -1157 691 -1472 970 -302 268
-324 288 -506 471 -155 156 -292 311 -407 460 -27 36 -74 97 -104 135 -30 39
-74 102 -98 140 -24 39 -60 94 -79 124 -95 150 -282 548 -344 736 -51 155
-121 465 -133 590 -8 86 -7 3048 1 3126 12 111 86 199 191 228 26 7 59 17 73
21 14 5 86 23 160 40 160 37 172 40 320 79 63 16 156 40 205 52 50 11 151 38
225 59 74 20 178 47 230 59 52 12 111 26 130 31 19 5 69 19 110 30 130 35 144
39 200 51 56 12 135 32 295 74 104 28 101 27 220 55 125 29 118 28 240 60 113
30 128 34 205 51 25 6 61 14 80 19 19 5 114 28 210 50 96 23 186 45 200 49 24
6 25 10 28 99 l3 92 -38 -1 c-21 0 -85 -13 -143 -28z"/>
<path d="M4940 8850 c-30 -10 -167 -45 -232 -59 -27 -6 -67 -15 -90 -21 -81
-18 -173 -40 -248 -61 -41 -11 -115 -29 -165 -41 -49 -11 -106 -24 -125 -29
-19 -4 -51 -12 -70 -17 -177 -50 -236 -65 -360 -93 -53 -12 -90 -22 -185 -48
-38 -11 -113 -29 -165 -41 -89 -21 -165 -40 -235 -60 -58 -17 -191 -51 -270
-69 -44 -11 -132 -33 -195 -50 -63 -17 -124 -33 -135 -35 -152 -35 -205 -48
-230 -55 -16 -5 -55 -15 -85 -21 -30 -7 -66 -16 -80 -20 -14 -4 -45 -13 -70
-20 -25 -6 -64 -20 -87 -31 -81 -36 -74 107 -76 -1622 -1 -1393 1 -1550 16
-1627 56 -289 78 -374 147 -560 17 -47 38 -104 46 -128 27 -78 198 -404 287
-547 178 -287 365 -521 657 -824 61 -63 273 -258 313 -288 21 -15 73 -55 114
-88 309 -242 424 -327 663 -485 74 -49 160 -106 190 -127 30 -21 80 -51 110
-67 30 -16 85 -49 122 -73 38 -23 70 -43 73 -43 2 0 28 -14 57 -31 29 -18 67
-40 83 -49 17 -10 71 -41 120 -70 131 -77 164 -89 200 -77 32 11 234 125 380
215 50 31 125 76 167 102 317 191 816 570 1113 844 473 437 807 851 1087 1345
127 223 274 589 314 776 66 316 64 245 64 1882 l0 1472 -22 25 c-22 24 -104
51 -258 86 -19 4 -71 17 -115 30 -44 12 -98 26 -120 31 -22 5 -56 13 -75 18
-135 37 -202 54 -330 86 -190 47 -235 58 -420 106 -85 22 -175 44 -200 49 -25
5 -79 19 -120 31 -119 33 -131 37 -200 54 -36 9 -128 32 -205 52 -77 19 -165
41 -195 48 -53 13 -163 41 -480 119 -191 48 -369 96 -398 107 -27 11 -48 10
-82 -1z m285 -240 c88 -23 237 -61 330 -85 468 -120 862 -220 970 -246 66 -16
154 -38 195 -49 41 -11 116 -29 165 -41 50 -12 142 -34 205 -51 162 -42 206
-53 370 -93 80 -19 227 -55 326 -81 l182 -46 6 -45 c11 -81 7 -2656 -5 -2828
-13 -199 -42 -343 -112 -555 -89 -270 -299 -678 -458 -888 -267 -355 -334
-436 -508 -616 -315 -324 -537 -521 -876 -777 -259 -196 -940 -639 -983 -639
-10 0 -12 296 -12 1523 1 1016 -3 1522 -9 1522 -6 0 -54 -48 -108 -106 -387
-421 -563 -599 -592 -599 -29 0 -91 59 -209 198 -101 120 -273 320 -372 432
-32 36 -91 104 -131 151 -41 47 -130 150 -199 229 -283 325 -340 393 -340 405
0 12 50 55 63 55 7 0 152 84 257 150 47 29 107 66 134 82 27 16 75 47 107 68
32 22 64 40 71 40 8 0 40 -35 73 -77 33 -43 75 -95 94 -115 18 -21 41 -48 49
-60 9 -13 18 -25 21 -28 4 -3 35 -39 71 -80 36 -41 72 -82 80 -92 8 -9 58 -69
110 -132 52 -63 102 -115 110 -115 8 0 103 72 210 160 107 88 220 179 250 202
30 23 99 77 155 120 l100 77 2 1528 c2 840 5 1533 8 1540 3 8 13 11 22 8 10
-3 90 -24 178 -46z"/>
</g>
</svg>
